<svg xmlns="http://www.w3.org/2000/svg" width="36.84" height="41.918"><g fill="#8a8c8f"><path d="M28.031 41.918a8.686 8.686 0 0 1-5.791-2.226 9.064 9.064 0 0 1-2.928-5.5 16.242 16.242 0 0 1-2.493.189 16.458 16.458 0 0 1-8.475-2.341 17.221 17.221 0 0 1-6.035-6.161.918.918 0 0 1-.105-.184 17.533 17.533 0 0 1-1.449-13.6.848.848 0 0 1 .045-.137 17.137 17.137 0 0 1 1.4-3.267 1.11 1.11 0 0 1 .1-.183 17.147 17.147 0 0 1 6.044-6.162 16.477 16.477 0 0 1 16.949 0 17.162 17.162 0 0 1 6.035 6.162.875.875 0 0 1 .1.184 17.5 17.5 0 0 1 1.879 11.86.856.856 0 0 1-.034.167 17.76 17.76 0 0 1-1.385 4.1 8.925 8.925 0 0 1 3.571 3.264 9.115 9.115 0 0 1 1.376 4.829 8.919 8.919 0 0 1-8.804 9.006Zm0-16.375a7.3 7.3 0 0 0-7.208 7.368v.293a7.4 7.4 0 0 0 2.2 5.01 7.088 7.088 0 0 0 5 2.065 7.392 7.392 0 0 0 2.318-14.345h-.016a8.847 8.847 0 0 0-.293-.094l-.024-.007-.024-.007c-.051-.015-.1-.03-.156-.043a4.726 4.726 0 0 0-.181-.045l-.09-.021-.041-.009-.108-.022-.05-.01-.078-.014-.066-.012-.183-.029L29 25.61l-.044-.006a7.215 7.215 0 0 0-.249-.028h-.072a8.796 8.796 0 0 0-.263-.018h-.051a2.742 2.742 0 0 0-.29-.014ZM12.8 26.2a23.374 23.374 0 0 0 .673 2.284c.947 2.67 2.2 4.265 3.349 4.266s2.4-1.6 3.35-4.266a23.336 23.336 0 0 0 .668-2.284Zm-8.378 0a15.179 15.179 0 0 0 9.23 6.209 13.273 13.273 0 0 1-1.686-3.367 25.823 25.823 0 0 1-.814-2.842Zm19-8.187a42.1 42.1 0 0 1-.6 6.55h1.929l.017-.007.04-.016.035-.014.075-.03.03-.012.048-.018.047-.017.107-.039.048-.017h.029l.016-.005.109-.036.031-.01.023-.007.04-.014.11-.033.018-.005.078-.023.111-.031.1-.026.112-.028.1-.024.094-.022h.017l.05-.011.05-.011.115-.023.049-.01.049-.009.117-.02.1-.016h.052l.052-.007h.047l.065-.009.111-.014h.052l.05-.005.131-.013h.071l.157-.009.088-.005.149-.006h.653l.186.009.08.006c.084.005.152.012.22.018l.121.013.184.023.131.018.121.02.145.024.084.016c.15.031.241.049.324.068h.02l.024.005.135.033.05.013.041.011.046.012h.009l.083.023a15.739 15.739 0 0 0 1.11-2.947h-2.28a.819.819 0 0 1 0-1.637h2.615a16.2 16.2 0 0 0 .17-1.638Zm-11.6 0a40.167 40.167 0 0 0 .627 6.55h8.741a40.034 40.034 0 0 0 .628-6.55Zm-10.2 0a15.63 15.63 0 0 0 1.8 6.55h7.4a42.432 42.432 0 0 1-.6-6.55Zm21.195-8.189a42.737 42.737 0 0 1 .6 6.55h8.6a15.626 15.626 0 0 0-1.8-6.55Zm-10.369 0a40.205 40.205 0 0 0-.627 6.55h10a40.188 40.188 0 0 0-.628-6.55ZM2.138 13.1a15.909 15.909 0 0 0-.515 3.275h8.6a42.312 42.312 0 0 1 .6-6.55H3.42a15.544 15.544 0 0 0-.748 1.638H4.82a.819.819 0 0 1 0 1.637Zm17.85-11.122a13.244 13.244 0 0 1 1.686 3.367 25.823 25.823 0 0 1 .814 2.842h6.731a15.182 15.182 0 0 0-9.231-6.209Zm-3.17-.341c-1.15 0-2.4 1.595-3.35 4.266a23.866 23.866 0 0 0-.672 2.284h8.044c-.195-.8-.421-1.569-.672-2.284-.948-2.671-2.2-4.266-3.35-4.266Zm-3.17.341a15.179 15.179 0 0 0-9.23 6.209h6.731a25.609 25.609 0 0 1 .814-2.842 13.237 13.237 0 0 1 1.686-3.367Z"/><path data-name="Shape" d="M28.028 29.433a2.027 2.027 0 0 0-2 2.047 2.051 2.051 0 0 0 1.2 1.875v2.218a.8.8 0 1 0 1.6 0v-2.218a2.051 2.051 0 0 0 1.2-1.875 2.027 2.027 0 0 0-2-2.047ZM7.141 11.462h-.02a.81.81 0 0 0-.8.819.81.81 0 0 0 .8.819h.02a.81.81 0 0 0 .8-.819.81.81 0 0 0-.8-.819Zm19.787 8.187h-.02a.81.81 0 0 0-.8.819.81.81 0 0 0 .8.819h.02a.81.81 0 0 0 .8-.819.81.81 0 0 0-.8-.819Z"/></g></svg>